<svg xmlns="http://www.w3.org/2000/svg" width="104" height="86" fill="none" viewBox="0 0 104 86"><path fill="url(#paint0_linear_23941_7786)" d="M75.12 42.402a.823.823 0 0 0-1.099.383s-19.37 39.654-18.773 40.017c.648.395 20.251-39.301 20.251-39.301.201-.412.03-.9-.379-1.099Z"/><path fill="url(#paint1_linear_23941_7786)" d="M67.847 38.229a.644.644 0 0 0-.865.288S51.336 69.421 51.799 69.716c.502.317 16.333-30.619 16.333-30.619a.644.644 0 0 0-.285-.868Z"/><path fill="url(#paint2_linear_23941_7786)" d="M69.348 41.385a.478.478 0 0 0-.638.224S57.458 64.73 57.805 64.945c.376.23 11.767-22.918 11.767-22.918a.483.483 0 0 0-.224-.642Z"/><path fill="url(#paint3_linear_23941_7786)" d="M60.484 65.76c.376.23 11.768-22.918 11.768-22.918a.478.478 0 1 0-.862-.415c0-.003-11.252 23.12-10.906 23.333Z"/><path fill="#9D5033" d="m76.902 19.691-2.152 4.19c.032.114.065.224.09.322l.341-.662 1.332.684 1.332.684-.771 1.504-.655 1.273c.039.072.075.143.107.214l.72-1.4.77-1.503 1.333.683 1.332.684-1.04 2.022-.506.982-.541-.278-.791-.405-1.206-.62c.068.166.107.292.107.292.01.023.023.042.036.062l.95.486 1.331.684-.8 1.555c.048.055.1.107.149.156l.833-1.617 2.664 1.367-.772 1.504-.557 1.082.052.062.165.224 1.575-3.066 3.406-6.63-4.414-2.27-4.42-2.265Zm1.07 4.969-1.333-.684-1.332-.684.772-1.504.771-1.503 2.664 1.367-.771 1.504-.772 1.504Zm4.005 6.173-1.332-.684-1.332-.684.771-1.503.772-1.504 1.332.684 1.331.684-1.542 3.007Zm1.886-6.948 1.332.684-.771 1.503-.772 1.504-1.332-.684-1.332-.683.772-1.504.771-1.504 1.332.684Zm-2.285.726-.771 1.504-2.664-1.368 1.546-3.007 2.664 1.367-.775 1.504Z"/><path fill="#CE7250" d="m81.322 21.96 4.413 2.268.474-.188-9.428-4.845.123.496 4.418 2.269Z"/><path fill="#CE7250" d="m81.496 21.62-4.715-2.425 9.428 4.845-4.713-2.42Z"/><path fill="#8D472E" d="m76.902 19.692-.123-.493-2.162 4.203c.04.156.088.321.133.48l2.152-4.19Z"/><path fill="#643322" d="m86.204 24.041-.473.188-3.406 6.63-1.575 3.066c.084.114.156.214.217.315l1.66-3.228 3.577-6.971Z"/><path fill="#9D5033" d="m76.942 20.592-.004.01.004-.01ZM79.523 21.652l-.771 1.504.771-1.504-2.664-1.37 1.332.683 1.332.687Z"/><path fill="#9D5033" d="m78.56 23.058.663-1.29-.524-.272c-1.491-.606-2.191.09-2.408.389l-.658 1.312 1.118.574 1.14.587.088.298-.078-.311.658-1.287Z"/><path fill="#CE7250" d="m76.94 20.592 1.096.564.11.055.55.286.53.272.297-.117-1.332-.687-1.332-.684.081.311Z"/><path fill="#643322" d="m79.522 21.652-.298.117-.664 1.29-.662 1.29.078.31.775-1.503.771-1.504Z"/><path fill="#82422B" d="m76.745 23.775-1.118-.574-.314.088 1.328.683 1.332.688-.084-.299-1.144-.586Z"/><path fill="#8D472E" d="M76.29 21.885a.97.97 0 0 0-.079.124l.726-1.41.004-.007-.078-.31-.771 1.503-.772 1.504.318-.091.651-1.313Z"/><path fill="#CE7250" d="m78.138 21.212-.062-.032-.048-.026-1.096-.564-.003.006-.726 1.41s.026-.049.078-.123c.217-.298.914-.998 2.408-.389l-.551-.282Z"/><path fill="#CE7250" d="m78.141 21.212-.11-.056.046.023.064.033Z"/><path fill="#9D5033" d="m78.14 24.746 2.665 1.368-1.332-.684-1.332-.684Z"/><path fill="#9D5033" d="m78.14 24.746.772-1.504.774-1.504 1.332.684 1.33.684-2.662-1.368-1.545 3.008Z"/><path fill="#9D5033" d="m81.395 24.514.665-1.29-1.141-.587-1.141-.586-.003.006.003-.006 1.756.904c-1.49-.606-2.19.09-2.407.389l-.658 1.312 1.118.574 1.14.587.088.298-.078-.311.658-1.29Z"/><path fill="#CE7250" d="m79.688 21.738.077.311 1.144.587 1.141.587.298-.117-1.329-.684-1.332-.684Z"/><path fill="#643322" d="m81.39 24.512-.663 1.29.08.31.772-1.503.771-1.504-.298.117-.661 1.29Z"/><path fill="#82422B" d="m79.573 25.23-1.115-.574-.317.091 1.332.684 1.332.684-.088-.299-1.144-.586Z"/><path fill="#8D472E" d="m78.467 24.655.658-1.313c-.052.072-.078.124-.078.124l.726-1.41.004-.007-.078-.31-.772 1.503-.77 1.504.31-.091Z"/><path fill="#CE7250" d="M79.125 23.344c.217-.298.913-.998 2.407-.39l-1.756-.903-.003.006-.726 1.41a.76.76 0 0 1 .078-.123Z"/><path fill="#9D5033" d="m84.239 25.975.664-1.29-.525-.27c-1.49-.605-2.19.092-2.408.39l-.657 1.312 1.118.574 1.14.586.088.299-.078-.311.658-1.29ZM82.614 23.512l-.005.004.005-.004Z"/><path fill="#CE7250" d="m82.617 23.512 1.76.904.525.27.298-.117-1.332-.684-1.329-.684.078.311Z"/><path fill="#643322" d="m84.24 25.975-.662 1.29.078.31.774-1.503.772-1.504-.298.117-.665 1.29Z"/><path fill="#82422B" d="m82.425 26.69-1.118-.573-.315.09 2.66 1.369-.083-.299-1.144-.586ZM82.324 26.893l1.329.684-2.66-1.368 1.331.684Z"/><path fill="#8D472E" d="m80.992 26.207.318-.09.658-1.313a.97.97 0 0 0-.078.123l.726-1.41.003-.003-.078-.31-.771 1.503-.778 1.5Z"/><path fill="#CE7250" d="m84.372 24.416-1.757-.904-.006.003-.726 1.41s.026-.049.078-.123c.22-.295.917-.995 2.41-.386Z"/><path fill="#9D5033" d="m77.552 25.023-1.14-.587-1.106-.567 1.721.885c-1.13-.46-1.805-.169-2.161.13l-.03.045-.003.003a2.999 2.999 0 0 1-.136.162 1.328 1.328 0 0 0-.136.182.083.083 0 0 0-.013.061c0 .007.003.013.007.02.003.013.01.029.019.042l.01.013c.016.02.035.039.061.058a.749.749 0 0 0 .09.058c.276.156.772.282.899.347.19.097.275.263.298.833.022.567.016.347.301.687a.798.798 0 0 1 .062.084l.596-1.16.661-1.296ZM75.266 23.852l.004-.004-.004.004Z"/><path fill="#CE7250" d="m75.269 23.848.035.02 1.105.567 1.144.586.298-.116-1.332-.684-1.332-.684.082.311Z"/><path fill="#643322" d="m77.848 24.906-.298.117-.665 1.29-.596 1.16c.045.065.09.136.133.207l.655-1.273.77-1.5Z"/><path fill="#8D472E" d="m75.262 23.848-.078-.31-.34.66c.035.123.065.23.08.308l.338-.654v-.004Z"/><path fill="#CE7250" d="m77.021 24.752-1.72-.885-.037-.02-.003.004-.337.655c.007.026.01.048.013.068.02.12-.02.217-.078.307.357-.298 1.03-.593 2.162-.13Z"/><path fill="#9D5033" d="m79.64 28.386 1.04-2.023-.77 1.504-.27.518ZM78.098 25.305l-.004.004.004-.004ZM79.132 29.367l-.538-.275.538.275ZM79.716 27.77l.664-1.29-1.14-.586-1.096-.564 1.71.882c-1.49-.607-2.19.09-2.407.388l-.658 1.313 1.118.574 1.14.586.088.298-.077-.31.657-1.29Z"/><path fill="#CE7250" d="m78.093 25.303.046.023 1.098.564 1.141.586.298-.113-1.332-.687-1.328-.684.077.311Z"/><path fill="#643322" d="m79.716 27.77-.661 1.29.077.307.506-.982.269-.518.771-1.504-.298.114-.664 1.293Z"/><path fill="#82422B" d="m79.136 29.369-.088-.299-1.14-.586-1.119-.574-.227.065c.014.032.026.061.04.09l1.996 1.028.538.276Z"/><path fill="#82422B" d="m78.598 29.092-1.996-1.027 1.202.618.794.409Z"/><path fill="#8D472E" d="M77.448 26.597c-.051.071-.077.123-.077.123l.726-1.41.003-.003-.078-.31-.771 1.503-.72 1.4.036.078.227-.065.654-1.316Z"/><path fill="#CE7250" d="m79.86 26.209-1.71-.882-.046-.022-.003.003-.726 1.41s.026-.049.078-.123c.217-.295.914-.992 2.408-.386Z"/><path fill="#9D5033" d="m80.937 26.773.003-.007-.08-.31.08.31-.003.007ZM81.977 30.832l1.545-3.008-.77 1.504-.775 1.504Z"/><path fill="#9D5033" d="m82.567 29.232.664-1.29-.687-.353.162.08c-1.49-.605-2.19.091-2.407.39l-.658 1.312 1.118.574 1.14.586.088.299-.078-.312.658-1.286Z"/><path fill="#CE7250" d="m80.86 26.455.08.311.879.454.72.37.686.353.298-.117-1.332-.684-1.332-.687Z"/><path fill="#643322" d="m82.567 29.23-.66 1.29.077.312.775-1.504.77-1.504-.297.117-.665 1.29Z"/><path fill="#82422B" d="m80.748 29.947-1.118-.574-.317.087 2.663 1.371-.087-.298-1.14-.586Z"/><path fill="#82422B" d="m80.644 30.145 1.332.687-2.663-1.371 1.331.684Z"/><path fill="#8D472E" d="M80.29 28.058a.973.973 0 0 0-.079.123l.726-1.41.004-.003-.078-.311-.771 1.504-.772 1.503.318-.09.651-1.316Z"/><path fill="#CE7250" d="M80.21 28.18s.027-.048.079-.123c.217-.298.914-.998 2.408-.388l-.163-.082-.719-.369-.878-.45-.003.003-.723 1.41Z"/><path fill="#CE7250" d="m80.938 26.766.878.453-.879-.453Z"/><path fill="#9D5033" d="m79.02 29.592-.772 1.504-.03.051.801-1.555ZM77.58 29.122l-.33-.169.946.486a3.188 3.188 0 0 0-.816-.22c.07.223.139.557.346 1.098.107.282.224.487.347.652l.648-1.26-1.14-.587Z"/><path fill="#CE7250" d="m78.718 29.708.298-.116-1.332-.684-.95-.486c.098.172.218.334.35.402a.43.43 0 0 1 .16.13l.33.168 1.144.586Z"/><path fill="#643322" d="m79.024 29.592-.298.117-.648 1.26c.049.065.097.127.146.178l.026-.051.774-1.504Z"/><path fill="#CE7250" d="M77.25 28.95a.78.78 0 0 1 .13.265c.243.03.512.094.816.22l-.946-.486Z"/><path fill="#9D5033" d="m81.867 31.053-2.664-1.367 1.332.683 1.332.684ZM80.906 32.46l.664-1.29-.528-.272c-1.49-.606-2.19.091-2.408.39l-.087.174c.191.178.389.36.577.658.23.36.499.635.755.872l.149.14.133.122.107.098c.039.035.074.074.11.11l.006.006.522-1.008Z"/><path fill="#9D5033" d="m79.205 29.686-.83 1.617.058-.114.772-1.503ZM79.286 29.996l-.005.005.005-.005Z"/><path fill="#CE7250" d="m79.284 29.997 1.598.82.159.084.528.269.298-.117-1.332-.684-1.332-.683.081.31Z"/><path fill="#643322" d="m81.864 31.053-.298.116-.665 1.29-.518 1.011c.02.02.042.04.058.059a.986.986 0 0 1 .094.11l.558-1.083.77-1.503Z"/><path fill="#8D472E" d="M78.553 31.41 79.28 30l.003-.003-.077-.311-.772 1.503-.058.114c.058.055.113.11.172.162l.087-.175c-.055.071-.08.12-.08.12Z"/><path fill="#CE7250" d="M79.284 29.996 79.28 30l-.726 1.41s.026-.049.077-.123c.218-.298.914-.998 2.408-.389l-.159-.081-1.597-.82Z"/><path fill="#CE7250" d="m80.883 30.816.159.085-.16-.085Z"/><path fill="#EE313E" fill-rule="evenodd" d="M80.48 34.285c-.396-.217-.555-.661-.888-.95-.205-.178-1.05-.946-1.27-1.108-.127-.094-.228-.272-.344-.49a6.96 6.96 0 0 1-.525-.531c-.175-.224-.457-.357-.947-.56-.489-.205-.492-.266-.894-.616s-.904-.405-.94-.506c-.032-.1-.771-.881-1.027-1.086-.26-.204-.992-.401-1.121-.405-.127-.006.006-.01.019-.353a1.87 1.87 0 0 0-.081-.603l.023-.042-4.602 8.954 9.706 4.988 3.422-6.657-.142.279c-.127-.065-.273-.25-.39-.314Z" clip-rule="evenodd"/><path fill="#BB2030" d="m67.886 35.987-.44.859 9.707 4.989.441-.86-9.707-4.988Z"/><path fill="#EAEAEA" d="m72.52 26.967-.036.07.037-.07ZM73.894 23.58a2.02 2.02 0 0 0-.058.185l.058-.185ZM73.675 24.623c0 .003 0 .01-.003.014v-.007c.003 0 .003-.004.003-.007Z"/><path fill="#9D5033" d="m74.833 24.926-.005.005.005-.005Z"/><path fill="#EAEAEA" d="m74.833 24.926-.005.005.005-.005Z"/><path fill="#9D5033" d="m74.54 25.332.002.017c0 .004.004.004.004.007a.05.05 0 0 1-.007-.024Z"/><path fill="#EAEAEA" d="m74.54 25.332.002.017c0 .004.004.004.004.007a.05.05 0 0 1-.007-.024Z"/><path fill="#9D5033" d="M80.375 33.465a.846.846 0 0 0 .01.01l-.01-.01Z"/><path fill="#EAEAEA" d="M80.375 33.465a.846.846 0 0 0 .01.01l-.01-.01Z"/><path fill="#643322" d="M80.383 33.47c.02.02.043.04.06.06l-.06-.06Z"/><path fill="#EAEAEA" d="M80.383 33.47c.02.02.043.04.06.06l-.06-.06Z"/><path fill="#EE313E" fill-rule="evenodd" d="M80.282 33.782c-.191-.23-.366-.522-.573-.7-.205-.178-1.05-.947-1.27-1.108-.127-.095-.228-.273-.344-.49-.214-.2-.441-.424-.525-.531-.175-.224-.457-.357-.947-.561-.489-.204-.492-.266-.894-.616s-.904-.405-.94-.505c-.032-.1-.771-.882-1.027-1.086-.26-.204-.992-.402-1.121-.405-.127-.007.006-.01.019-.353.016-.344-.1-.665-.1-.665v-.006a.427.427 0 0 1-.036.21l-.033.065-.022.043c.032.11.094.35.08.602-.015.344-.148.347-.019.354.127.006.862.2 1.122.405.259.204.995.985 1.027 1.085.032.1.538.156.94.506.402.35.405.415.894.616.49.204.771.337.947.56.084.107.31.327.525.532.116.217.217.398.343.489.22.162 1.066.93 1.27 1.108.33.289.493.73.888.95.117.065.263.253.392.311l.143-.279c-.003.003-.55-.301-.739-.531Z" clip-rule="evenodd"/><path fill="#EAEAEA" d="M80.282 33.782c-.191-.23-.366-.522-.573-.7-.205-.178-1.05-.947-1.27-1.108-.127-.095-.228-.273-.344-.49-.214-.2-.441-.424-.525-.531-.175-.224-.457-.357-.947-.561-.489-.204-.492-.266-.894-.616s-.904-.405-.94-.505c-.032-.1-.771-.882-1.027-1.086-.26-.204-.992-.402-1.121-.405-.127-.007.006-.01.019-.353.016-.344-.1-.665-.1-.665v-.006a.427.427 0 0 1-.036.21l-.033.065-.022.043c.032.11.094.35.08.602-.015.344-.148.347-.019.354.127.006.862.2 1.122.405.259.204.995.985 1.027 1.085.032.1.538.156.94.506.402.35.405.415.894.616.49.204.771.337.947.56.084.107.31.327.525.532.116.217.217.398.343.489.22.162 1.066.93 1.27 1.108.33.289.493.73.888.95.117.065.263.253.392.311l.143-.279c-.003.003-.55-.301-.739-.531Z"/><path fill="#BB2030" fill-rule="evenodd" d="M73.757 24.125c0 .01-.004.019-.004.026 0 .003 0 .01-.003.012.007-.045.016-.09.026-.136a.642.642 0 0 0-.02.098ZM73.675 24.636l-.003.023c.003-.01.003-.02.007-.03-.004.003-.004.007-.004.007ZM73.702 24.51c-.003.017-.003.03-.007.043.004-.017.004-.03.007-.043 0-.003 0-.003 0 0ZM73.732 24.293c0 .01-.004.017-.004.023l-.01.065c.007-.052.017-.107.023-.162 0 .026-.006.048-.01.074ZM74.547 25.35c.003.016.013.032.023.049a.126.126 0 0 1-.02-.043c0-.003-.003-.003-.003-.006ZM72.658 27.426c-.016.344-.15.347-.02.353.127.007.862.201 1.122.405.259.205.994.986 1.027 1.086.032.1.538.156.94.506.402.35.405.415.894.615.49.205.772.337.947.561.084.107.31.327.525.531-.085-.162-.179-.343-.295-.528a.686.686 0 0 0-.098-.126l-.058-.068c-.013-.016-.03-.03-.045-.046-.023-.022-.042-.045-.065-.068-.02-.019-.04-.035-.058-.055l-.069-.068-.064-.061c-.026-.023-.049-.046-.075-.068-.023-.02-.045-.043-.071-.065-.026-.026-.055-.049-.081-.075l-.068-.061c-.033-.026-.062-.055-.094-.081-.02-.02-.042-.036-.062-.055-.035-.033-.071-.062-.107-.094l-.003-.004c-.418-.363-.843-.726-1.03-.952-.104-.124-.26-.286-.432-.467l-.051-.055c-.062-.062-.12-.127-.185-.195-.04-.038-.075-.08-.114-.123-.055-.058-.106-.116-.162-.178-.01-.013-.022-.023-.032-.036-.34-.385-.668-.813-.83-1.231-.346-.882-.547-1.245-.508-1.507a1.11 1.11 0 0 1 .223-.49.152.152 0 0 1-.039.046l-.016.016c-.152.14-.593.389-.995.328-.47-.072-1.218.343-1.218.343s.136.016.288.075c.049.019.097.042.146.07.01.004.016.01.023.017a.906.906 0 0 1 .139.11c.104.114.217.292.314.46.049.085.094.169.13.243.039.075.068.14.087.185.023.049.03.094.033.136v.007c.006-.003.123.32.107.664Z" clip-rule="evenodd"/><path fill="#CCC" d="M73.434 25.213c-.038.266.163.629.51 1.507.165.418.492.846.829 1.232.003-.004.181-.12.457-.182.278-.061.236-.285.376-.544.14-.26.116-.684.061-.882-.055-.198-.308-.347-.434-.282-.123.065-.133-.071-.14-.142-.006-.072-.281-.1-.427-.179-.146-.077-.156-.087-.178-.21-.026-.123-.026-.049-.175.029-.15.08-.412.564-.412.564s.165-.509.133-.61c-.032-.1.269-.405.334-.554.065-.149.253-.33.117-.534-.137-.204.12-.28.006-.483-.114-.204-.107-.25-.114-.7a1.693 1.693 0 0 1 .108-.596c-.091.061-.308.35-.493.71a1.957 1.957 0 0 0-.152.408c0 .003 0 .003-.004.006 0 .003-.003.006-.003.01-.016.061-.032.123-.045.184-.004.02-.01.04-.013.062-.01.045-.017.09-.026.136l-.01.052c-.01.055-.016.113-.023.162-.006.045-.013.084-.016.123v.003c-.003.017-.003.033-.006.046a.445.445 0 0 1-.013.074v.007c-.004.01-.004.02-.007.029-.006.026-.01.049-.016.062-.006.01-.013.022-.026.035a1.123 1.123 0 0 0-.198.457ZM76.772 29.962c.026-.207.052-.428.072-.622.065-.632-.661-1.507-.74-1.676-.077-.168-.2-.21-.466.201-.266.415-.087.169-.266.396a.38.38 0 0 0-.064.278c.175.182.327.34.43.467.195.227.62.59 1.034.956Z"/><path fill="#E6E6E5" d="m80.592 33.7-.052-.061c-.03-.036-.058-.071-.094-.11l-.058-.059-.007-.006c-.035-.036-.071-.075-.11-.11-.032-.033-.071-.065-.107-.097a63.74 63.74 0 0 1-.133-.124c-.048-.045-.1-.09-.149-.139a4.434 4.434 0 0 1-.755-.872 3.138 3.138 0 0 0-.577-.658c-.058-.055-.116-.107-.171-.162a2.85 2.85 0 0 1-.295-.334 2.613 2.613 0 0 1-.347-.65c-.208-.542-.279-.876-.347-1.1a.753.753 0 0 0-.13-.265.488.488 0 0 0-.158-.13c-.133-.068-.253-.23-.35-.402a.608.608 0 0 1-.036-.061s-.039-.127-.107-.292c-.013-.03-.023-.058-.039-.09a3.33 3.33 0 0 0-.142-.292 1.506 1.506 0 0 0-.133-.208c-.02-.029-.04-.058-.062-.084-.285-.34-.279-.12-.301-.687-.023-.567-.107-.732-.298-.833-.127-.065-.623-.194-.898-.347-.026-.016-.052-.029-.075-.045-.006-.003-.013-.006-.016-.013a.359.359 0 0 1-.061-.058l-.01-.013a.163.163 0 0 1-.023-.049c0-.006-.003-.01-.003-.016 0-.02 0-.039.013-.062.039-.065.087-.123.136-.181a5 5 0 0 0 .136-.162s0-.003.003-.003c.01-.013.02-.03.03-.046a.419.419 0 0 0 .077-.308c-.003-.02-.006-.042-.013-.068a5.85 5.85 0 0 0-.08-.308c-.03-.097-.059-.207-.091-.32a35.51 35.51 0 0 1-.133-.48c-.081-.311-.136-.59-.104-.69.01-.03.01-.046.01-.059v-.006c-.004-.01-.01-.013-.02-.01-.003 0-.003.003-.006.003l-.016.007v.003c-.055.152-.11.363-.107.596.006.45 0 .496.113.7.114.204-.142.28-.006.483.136.204-.052.386-.117.535-.065.149-.366.454-.334.554.032.1-.133.61-.133.61s.26-.483.412-.564c.149-.081.152-.153.175-.03.026.123.035.133.178.211.146.078.421.107.428.178.006.072.016.204.14.143.122-.065.375.084.433.282.056.197.082.622-.061.881-.14.263-.097.483-.376.545a1.448 1.448 0 0 0-.457.181c.01.013.023.023.032.036.055.061.107.12.162.178.04.042.075.084.114.123l.185.195c.016.02.035.038.052.055a.38.38 0 0 1 .064-.279c.178-.227-.003.016.266-.395.266-.415.389-.37.467-.201.078.168.8 1.043.739 1.675-.02.195-.046.415-.072.622l.003.004c.036.032.072.061.107.094.02.02.043.035.062.055.032.029.062.055.094.08.023.02.045.043.068.062.03.026.055.049.081.075.023.02.049.042.071.065.026.022.049.045.075.068.023.02.045.042.065.061.026.023.045.046.068.068.02.02.039.04.058.056.023.022.046.045.065.067.013.017.03.033.045.046.023.023.04.045.059.068a.692.692 0 0 1 .097.126c.117.185.21.367.295.529.116.217.217.398.343.489.22.162 1.067.93 1.27 1.108.205.178.383.47.574.7.191.23.74.538.74.538l-.05-.078a3.694 3.694 0 0 0-.217-.314c-.055-.068-.107-.14-.168-.224Z"/><path fill="#E6E6E5" d="m76.778 29.966-.005-.005c.005 0 .005 0 .005.005Z"/><path fill="url(#paint4_linear_23941_7786)" d="M35.438 36.582a.777.777 0 0 0-1.04.358S15.887 74.435 16.45 74.78c.611.376 19.347-37.158 19.347-37.158a.775.775 0 0 0-.358-1.041Z"/><path fill="url(#paint5_linear_23941_7786)" d="M27.798 34.013a.777.777 0 0 0-1.041.358S8.247 71.868 8.809 72.213c.611.376 19.347-37.158 19.347-37.158a.782.782 0 0 0-.358-1.042Z"/><path fill="url(#paint6_linear_23941_7786)" d="M23.725 54.076c.282.175 8.931-17.156 8.931-17.156a.361.361 0 0 0-.165-.481.361.361 0 0 0-.482.165c0 .003-8.546 17.313-8.284 17.472Z"/><path fill="url(#paint7_linear_23941_7786)" d="M30.834 34.812a.361.361 0 0 0-.481.165s-8.546 17.31-8.285 17.47C22.351 52.62 31 35.29 31 35.29a.358.358 0 0 0-.166-.478Z"/><path fill="url(#paint8_linear_23941_7786)" d="M26.61 31.96a.361.361 0 0 0-.166-.482.361.361 0 0 0-.482.165s-8.546 17.31-8.284 17.47c.283.174 8.931-17.154 8.931-17.154Z"/><path fill="#EF4458" d="M31.791 32.647c.118.04.238.066.362.072.436.015.577.292.577.292.175.247.373.446.581.608.786.614 1.842.761 2.79.446 4.902-1.638 5.934-5.258 6.13-7.147.126-1.237-.57-2.932-1.653-3.545-1.194-.678-2.575-.666-3.009-.644h-.003l-.138.009.117-.04-.286-.409c-.162-.223-.228-.31-.292-.4-1.8-2.513-5.061-2.693-7.104-.382a8.2 8.2 0 0 0-1.809 3.454c-.096.38-.174.756-.235 1.135-.174 4.833 3.073 6.253 3.973 6.551Z"/><path fill="#45B75A" d="M37.576 22.729h.003l.126-.027c.716-1.496.635-3.864.602-4.454l-1.035.102c.06.677.156 1.306.156 1.935 0 .623-.096 1.246-.162 2.005l.285.409.025.03Z"/><path fill="#EF484F" d="M38.55 21.189c.003-.01.003-.022.006-.03l-.01.027s0 .003.004.003Z"/><path fill="#B73651" d="M37.438 22.738s.05-.006.138-.009l-.021-.03-.117.04ZM37.578 22.73c.433-.023 1.814-.032 3.009.645 1.083.614 1.778 2.308 1.652 3.545-.196 1.89-1.228 5.51-6.13 7.147-.948.316-2.001.171-2.79-.446a2.884 2.884 0 0 1-.58-.608s-.142-.276-.578-.291a1.24 1.24 0 0 1-.361-.073c-.9-.3-4.147-1.72-3.975-6.554-.304 1.842-.187 3.666.644 5.426.656 1.387 1.742 2.227 3.334 2.314.171.009.385.09.494.214 1.251 1.405 2.813 1.655 4.483 1.047 3.214-1.17 5.38-3.413 6.296-6.732.514-1.872.108-3.575-1.48-4.833-.895-.71-1.933-1.008-3.14-.945l-.334.024-.415.09-.13.03Z"/><path fill="#45B75A" d="M44.207 19.224c-1.929-1.276-4.938-.24-5.654 1.935-.003.009-.003.02-.006.03 4.071-.49 5.66-1.965 5.66-1.965Z"/><path fill="#45B75A" d="M44.207 19.223s-1.589 1.471-5.66 1.965c1.784 1.363 5.08.222 5.66-1.965Z"/><path fill="#267A3D" d="M44.207 19.223s-1.589 1.471-5.66 1.965c1.784 1.363 5.08.222 5.66-1.965Z" opacity=".58"/><path fill="#45B75A" d="m38.549 21.186.009-.027c.216-.972.262-1.935.057-2.94a11.98 11.98 0 0 1-.31.03c.033.59.114 2.958-.602 4.454l.415-.09c.181-.482.325-.955.434-1.427-.003.003-.003 0-.003 0Z"/><path fill="#267A3D" d="m38.549 21.186.009-.027c.216-.972.262-1.935.057-2.94a11.98 11.98 0 0 1-.31.03c.033.59.114 2.958-.602 4.454l.415-.09c.181-.482.325-.955.434-1.427-.003.003-.003 0-.003 0Z" opacity=".58"/><path fill="url(#paint9_linear_23941_7786)" d="M60.612 27.698a.952.952 0 0 0-1.272.43S36.735 73.354 37.422 73.772c.746.456 23.625-44.818 23.625-44.818a.938.938 0 0 0-.435-1.256Z"/><path fill="url(#paint10_linear_23941_7786)" d="M52.062 21.316a.952.952 0 0 0-1.271.43s-22.676 45.192-21.986 45.61c.746.456 23.692-44.785 23.692-44.785a.933.933 0 0 0-.435-1.255Z"/><path fill="url(#paint11_linear_23941_7786)" d="M52.758 29.127a.557.557 0 0 0-.742.252S38.842 55.73 39.243 55.974c.435.266 13.767-26.119 13.767-26.119a.538.538 0 0 0-.252-.73Z"/><path fill="url(#paint12_linear_23941_7786)" d="M44.07 51.42c.345.212 10.905-20.692 10.905-20.692a.436.436 0 0 0-.203-.581.446.446 0 0 0-.589.2c.004 0-10.432 20.878-10.113 21.074Z"/><path fill="#90CA77" d="M53.344 15.547c.067.155.157.367.258.626a3.819 3.819 0 0 1-.003-.508 5.314 5.314 0 0 1-.255-.118ZM57.344 20.07l-1.44 2.574.74-2.711a4.386 4.386 0 0 1-.78-.312 5.093 5.093 0 0 1-.308-.177l-.03.94-.23-1.118a4.209 4.209 0 0 1-1.008-1.067c.499 1.819.851 4.17.165 6.13-.645 1.848-1.564 3.13-1.969 3.637l1.797.937 4.695-8.963a4.313 4.313 0 0 1-1.632.13Z"/><path fill="#6FAF57" d="m61.856 22.929-.769.281.293-.47a4.09 4.09 0 0 1-.934-.593l-2.168 2.056 1.67-2.563a4.24 4.24 0 0 1-.815-1.504l-.345.585.334-.622c-.019-.063-.041-.122-.056-.185-.034.011-.064.015-.098.026l-4.695 8.963 1.68.878c.248-.66.86-2.037 2.033-3.478 1.429-1.752 3.9-2.707 5.794-3.207-.634.088-1.29.04-1.924-.167ZM66.384 22.59l-.84-.186a4.24 4.24 0 0 1-1.013.508 17.576 17.576 0 0 1 1.853-.322Z"/><path fill="#286F37" d="M59.066 19.912c-.007-.037-.019-.07-.026-.107l-.071.133c.033-.011.067-.018.097-.026Z"/><path fill="#257F3E" d="M55.288 19.264a4.106 4.106 0 0 0 1.346.667c.233.067.469.111.702.137a4.216 4.216 0 0 0 1.627-.133l.071-.134a4.109 4.109 0 0 1 .147-2.226 4.222 4.222 0 0 1-2.228-.466 4.163 4.163 0 0 1-1.365-1.137 4.215 4.215 0 0 1-1.988-.304 4.208 4.208 0 0 0 .679 2.53c.267.403.604.766 1.009 1.066Z"/><path fill="#329946" d="M55.592 15.969a4.172 4.172 0 0 1-.886-2.889 4.162 4.162 0 0 1 .462-1.615c.041-.078.09-.152.135-.226a4.144 4.144 0 0 1 .851-3.489c-1.826-.433-3.776.393-4.68 2.119-1.069 2.044-.27 4.57 1.793 5.644.026.015.056.026.086.037.086.041.169.082.255.119.641.263 1.324.36 1.984.3Z"/><path fill="#3AB44A" d="M55.3 11.237a4.172 4.172 0 0 1 3.203-1.989c.48-.044.971-.004 1.451.122a4.149 4.149 0 0 1 2.37-1.97 4.211 4.211 0 0 0-6.172.348 4.144 4.144 0 0 0-.851 3.489Z"/><path fill="#257F3E" d="M59.18 17.574c-.255.733-.3 1.5-.146 2.226l1.189-2.267c-.02-.044-.034-.092-.053-.14a3.893 3.893 0 0 1-.99.181Z"/><path fill="#217038" d="M70.817 15.64a4.163 4.163 0 0 1-3.48 2.982 4.11 4.11 0 0 1-1.58 3.626c.106.067.21.13.323.189 2.06 1.074 4.598.289 5.667-1.756.903-1.722.465-3.789-.93-5.04Z"/><path fill="#257F3E" d="M66.876 20.903a4.11 4.11 0 0 0 .454-2.281c-.019.004-.034.007-.052.007a4.192 4.192 0 0 1-3.24 1.448 4.16 4.16 0 0 1-1.894-.477 4.27 4.27 0 0 1-1.924-2.07l-1.189 2.266c.008.037.019.07.026.107.015.063.038.123.057.186l.011.037c.165.548.439 1.059.814 1.503.154.182.315.352.498.508a4.152 4.152 0 0 0 1.41.781 4.212 4.212 0 0 0 3.893-.678 3.974 3.974 0 0 0 1.136-1.337Z"/><path fill="#33A749" d="M59.952 16.618a4.65 4.65 0 0 1-.049-.33 4.166 4.166 0 0 1 .214-1.77c.068-.189.143-.374.236-.555 0-.004.004-.007.004-.007a4.153 4.153 0 0 1-.836-1.826 4.074 4.074 0 0 1 .015-1.623 4.1 4.1 0 0 1 .382-1.081c.011-.019.023-.033.03-.052a4.196 4.196 0 0 0-1.451-.122 4.172 4.172 0 0 0-3.203 1.989c-.044.074-.093.148-.134.226a4.162 4.162 0 0 0-.462 1.614 4.204 4.204 0 0 0 .885 2.89 4.193 4.193 0 0 0 3.593 1.603c.337-.022.671-.082.99-.182a4.55 4.55 0 0 1-.214-.774Z"/><path fill="#29803F" d="m60.172 17.395.052.141.102-.196a6.42 6.42 0 0 1-.154.055ZM61.676 15.043c-.037-.018-.071-.044-.108-.066l-.068.13c.056-.023.116-.041.176-.064Z"/><path fill="#249045" d="M60.125 14.518a4.102 4.102 0 0 0-.165 2.1c.049.267.12.526.217.778.053-.015.105-.037.154-.056l.184-.348.986-1.881.068-.13a4.097 4.097 0 0 1-1.2-1.026c0 .004-.004.008-.004.008a3.614 3.614 0 0 0-.24.555Z"/><path fill="#268340" d="M67.385 13.315c0 .003-.004.007-.004.007.3.374.529.796.682 1.24a4.135 4.135 0 0 1-.727 4.015c0 .015 0 .03.004.045a4.17 4.17 0 0 0 3.48-2.982 4.19 4.19 0 0 0-3.075-5.218 4.166 4.166 0 0 1-.36 2.893Z"/><path fill="#29803F" d="M67.281 18.635c.02-.004.034-.007.054-.007 0-.015 0-.03-.004-.046-.016.015-.035.034-.05.053Z"/><path fill="#249045" d="M67.82 17.852a4.136 4.136 0 0 0 .24-3.285 4.153 4.153 0 0 0-.682-1.24 4.166 4.166 0 0 1-2.246 1.963c-.77.28-1.62.34-2.445.14l-.09-.022a3.74 3.74 0 0 1-.672-.245c-.067-.03-.138-.06-.206-.092l-.041-.023c-.06.023-.12.041-.18.067l-.986 1.882-.184.348-.101.196a4.27 4.27 0 0 0 1.923 2.07 4.256 4.256 0 0 0 1.894.478 4.198 4.198 0 0 0 3.24-1.448c.015-.018.034-.033.049-.052.184-.23.349-.474.487-.737Z"/><path fill="#45B649" d="M59.953 9.373c-.01.019-.022.033-.03.052a4.013 4.013 0 0 0-.382 1.081 4.148 4.148 0 0 0-.015 1.623c.127.662.412 1.288.836 1.825a4.208 4.208 0 0 0 1.2 1.026l.203-.389.667-1.277.51-.974.278-.526.31-.597.84-1.607 1.055-2.011a4.224 4.224 0 0 0-3.11-.196 4.144 4.144 0 0 0-2.362 1.97Z"/><path fill="#45B649" d="m63.531 11.214-.311.596-.277.526-.51.974-.668 1.278-.203.39c.038.021.072.044.11.066l.04.022c.068.037.135.063.207.093.221.1.446.181.671.244l.09.022c.825.2 1.676.141 2.445-.14a4.167 4.167 0 0 0 2.246-1.963c0-.004.004-.008.004-.008a4.13 4.13 0 0 0 .356-2.889 4.204 4.204 0 0 0-2.148-2.755c-.053-.026-.105-.048-.158-.074l-1.054 2.01-.84 1.608Zm-.885 4.078a4.976 4.976 0 0 1-.067-.474c.09-.011.184-.019.273-.026-.052.17-.123.337-.206.5Z"/><path fill="#45B649" d="M62.65 15.291c.082-.163.15-.33.21-.496a6.239 6.239 0 0 0-.274.026c.011.155.034.315.064.47Z"/><defs><linearGradient id="paint0_linear_23941_7786" x1="59.722" x2="70.521" y1="63" y2="65.458" gradientUnits="userSpaceOnUse"><stop offset=".083" stop-color="#ED3895" stop-opacity="0"/><stop offset=".189" stop-color="#EE3892" stop-opacity=".164"/><stop offset=".293" stop-color="#EE388D" stop-opacity=".326"/><stop offset=".397" stop-color="#EE3984" stop-opacity=".486"/><stop offset=".5" stop-color="#EE397A" stop-opacity=".645"/><stop offset=".6" stop-color="#EE3B6C" stop-opacity=".8"/><stop offset="1" stop-color="#F3E841"/></linearGradient><linearGradient id="paint1_linear_23941_7786" x1="55.544" x2="63.991" y1="54.259" y2="56.309" gradientUnits="userSpaceOnUse"><stop stop-color="#ED3895" stop-opacity="0"/><stop offset=".084" stop-color="#EE3891" stop-opacity=".142"/><stop offset=".187" stop-color="#EE388B" stop-opacity=".316"/><stop offset=".299" stop-color="#EE3981" stop-opacity=".507"/><stop offset=".417" stop-color="#EE3A73" stop-opacity=".707"/><stop offset=".472" stop-color="#EE3B6C" stop-opacity=".8"/><stop offset="1" stop-color="#F3E841"/></linearGradient><linearGradient id="paint2_linear_23941_7786" x1="60.422" x2="66.716" y1="53.37" y2="54.794" gradientUnits="userSpaceOnUse"><stop stop-color="#ED3895" stop-opacity="0"/><stop offset=".084" stop-color="#EE3891" stop-opacity=".142"/><stop offset=".187" stop-color="#EE388B" stop-opacity=".316"/><stop offset=".299" stop-color="#EE3981" stop-opacity=".507"/><stop offset=".417" stop-color="#EE3A73" stop-opacity=".707"/><stop offset=".472" stop-color="#EE3B6C" stop-opacity=".8"/><stop offset="1" stop-color="#F3E841"/></linearGradient><linearGradient id="paint3_linear_23941_7786" x1="63.101" x2="69.396" y1="54.187" y2="55.611" gradientUnits="userSpaceOnUse"><stop stop-color="#ED3895" stop-opacity="0"/><stop offset=".084" stop-color="#EE3891" stop-opacity=".142"/><stop offset=".187" stop-color="#EE388B" stop-opacity=".316"/><stop offset=".299" stop-color="#EE3981" stop-opacity=".507"/><stop offset=".417" stop-color="#EE3A73" stop-opacity=".707"/><stop offset=".472" stop-color="#EE3B6C" stop-opacity=".8"/><stop offset="1" stop-color="#F3E841"/></linearGradient><linearGradient id="paint4_linear_23941_7786" x1="20.763" x2="30.985" y1="56.046" y2="58.418" gradientUnits="userSpaceOnUse"><stop offset=".083" stop-color="#ED3895" stop-opacity="0"/><stop offset=".189" stop-color="#EE3892" stop-opacity=".164"/><stop offset=".293" stop-color="#EE388D" stop-opacity=".326"/><stop offset=".397" stop-color="#EE3984" stop-opacity=".486"/><stop offset=".5" stop-color="#EE397A" stop-opacity=".645"/><stop offset=".6" stop-color="#EE3B6C" stop-opacity=".8"/><stop offset="1" stop-color="#F3E841"/></linearGradient><linearGradient id="paint5_linear_23941_7786" x1="13.121" x2="23.343" y1="53.48" y2="55.852" gradientUnits="userSpaceOnUse"><stop offset=".083" stop-color="#ED3895" stop-opacity="0"/><stop offset=".189" stop-color="#EE3892" stop-opacity=".164"/><stop offset=".293" stop-color="#EE388D" stop-opacity=".326"/><stop offset=".397" stop-color="#EE3984" stop-opacity=".486"/><stop offset=".5" stop-color="#EE397A" stop-opacity=".645"/><stop offset=".6" stop-color="#EE3B6C" stop-opacity=".8"/><stop offset="1" stop-color="#F3E841"/></linearGradient><linearGradient id="paint6_linear_23941_7786" x1="25.711" x2="30.43" y1="45.432" y2="46.527" gradientUnits="userSpaceOnUse"><stop stop-color="#ED3895" stop-opacity="0"/><stop offset=".084" stop-color="#EE3891" stop-opacity=".142"/><stop offset=".187" stop-color="#EE388B" stop-opacity=".316"/><stop offset=".299" stop-color="#EE3981" stop-opacity=".507"/><stop offset=".417" stop-color="#EE3A73" stop-opacity=".707"/><stop offset=".472" stop-color="#EE3B6C" stop-opacity=".8"/><stop offset="1" stop-color="#F3E841"/></linearGradient><linearGradient id="paint7_linear_23941_7786" x1="24.055" x2="28.774" y1="43.802" y2="44.897" gradientUnits="userSpaceOnUse"><stop stop-color="#ED3895" stop-opacity="0"/><stop offset=".084" stop-color="#EE3891" stop-opacity=".142"/><stop offset=".187" stop-color="#EE388B" stop-opacity=".316"/><stop offset=".299" stop-color="#EE3981" stop-opacity=".507"/><stop offset=".417" stop-color="#EE3A73" stop-opacity=".707"/><stop offset=".472" stop-color="#EE3B6C" stop-opacity=".8"/><stop offset="1" stop-color="#F3E841"/></linearGradient><linearGradient id="paint8_linear_23941_7786" x1="19.667" x2="24.386" y1="40.468" y2="41.563" gradientUnits="userSpaceOnUse"><stop stop-color="#ED3895" stop-opacity="0"/><stop offset=".084" stop-color="#EE3891" stop-opacity=".142"/><stop offset=".187" stop-color="#EE388B" stop-opacity=".316"/><stop offset=".299" stop-color="#EE3981" stop-opacity=".507"/><stop offset=".417" stop-color="#EE3A73" stop-opacity=".707"/><stop offset=".472" stop-color="#EE3B6C" stop-opacity=".8"/><stop offset="1" stop-color="#F3E841"/></linearGradient><linearGradient id="paint9_linear_23941_7786" x1="42.692" x2="55.16" y1="51.184" y2="54.114" gradientUnits="userSpaceOnUse"><stop offset=".083" stop-color="#ED3895" stop-opacity="0"/><stop offset=".189" stop-color="#EE3892" stop-opacity=".164"/><stop offset=".293" stop-color="#EE388D" stop-opacity=".326"/><stop offset=".397" stop-color="#EE3984" stop-opacity=".486"/><stop offset=".5" stop-color="#EE397A" stop-opacity=".645"/><stop offset=".6" stop-color="#EE3B6C" stop-opacity=".8"/><stop offset="1" stop-color="#F3E841"/></linearGradient><linearGradient id="paint10_linear_23941_7786" x1="34.105" x2="46.569" y1="44.737" y2="47.686" gradientUnits="userSpaceOnUse"><stop offset=".083" stop-color="#ED3895" stop-opacity="0"/><stop offset=".189" stop-color="#EE3892" stop-opacity=".164"/><stop offset=".293" stop-color="#EE388D" stop-opacity=".326"/><stop offset=".397" stop-color="#EE3984" stop-opacity=".486"/><stop offset=".5" stop-color="#EE397A" stop-opacity=".645"/><stop offset=".6" stop-color="#EE3B6C" stop-opacity=".8"/><stop offset="1" stop-color="#F3E841"/></linearGradient><linearGradient id="paint11_linear_23941_7786" x1="42.315" x2="49.58" y1="42.819" y2="44.526" gradientUnits="userSpaceOnUse"><stop stop-color="#ED3895" stop-opacity="0"/><stop offset=".084" stop-color="#EE3891" stop-opacity=".142"/><stop offset=".187" stop-color="#EE388B" stop-opacity=".316"/><stop offset=".299" stop-color="#EE3981" stop-opacity=".507"/><stop offset=".417" stop-color="#EE3A73" stop-opacity=".707"/><stop offset=".472" stop-color="#EE3B6C" stop-opacity=".8"/><stop offset="1" stop-color="#F3E841"/></linearGradient><linearGradient id="paint12_linear_23941_7786" x1="46.501" x2="52.257" y1="41" y2="42.353" gradientUnits="userSpaceOnUse"><stop stop-color="#ED3895" stop-opacity="0"/><stop offset=".084" stop-color="#EE3891" stop-opacity=".142"/><stop offset=".187" stop-color="#EE388B" stop-opacity=".316"/><stop offset=".299" stop-color="#EE3981" stop-opacity=".507"/><stop offset=".417" stop-color="#EE3A73" stop-opacity=".707"/><stop offset=".472" stop-color="#EE3B6C" stop-opacity=".8"/><stop offset="1" stop-color="#F3E841"/></linearGradient></defs></svg>