<svg xmlns="http://www.w3.org/2000/svg" width="40" height="55" fill="none" viewBox="0 0 40 55"><g filter="url(#filter0_d)"><path fill="url(#paint0_linear)" d="M20 4C11.178 4 4 11.178 4 20c0 2.648.662 5.274 1.92 7.604l13.13 22.595a.999.999 0 0 0 1.75 0l13.284-22.603A16.028 16.028 0 0 0 36 20c0-8.822-7.178-16-16-16Zm0 24c-4.411 0-8-3.589-8-8s3.589-8 8-8 8 3.589 8 8-3.589 8-8 8Z"/></g><defs><linearGradient id="paint0_linear" x1="18.907" x2="32.877" y1="4" y2="51.825" gradientUnits="userSpaceOnUse"><stop stop-color="#FF3269"/><stop offset="1" stop-color="#FF794D"/></linearGradient><filter id="filter0_d" width="40" height="54.715" x="0" y="0" color-interpolation-filters="sRGB" filterUnits="userSpaceOnUse"><feFlood flood-opacity="0" result="BackgroundImageFix"/><feColorMatrix in="SourceAlpha" result="hardAlpha" type="matrix" values="0 0 0 0 0 0 0 0 0 0 0 0 0 0 0 0 0 0 127 0"/><feOffset/><feGaussianBlur stdDeviation="2"/><feColorMatrix type="matrix" values="0 0 0 0 0 0 0 0 0 0 0 0 0 0 0 0 0 0 0.25 0"/><feBlend in2="BackgroundImageFix" mode="normal" result="effect1_dropShadow"/><feBlend in="SourceGraphic" in2="effect1_dropShadow" mode="normal" result="shape"/></filter></defs></svg>