<svg xmlns="http://www.w3.org/2000/svg" width="24" height="24" fill="none" viewBox="0 0 24 24"><path fill="#262A33" d="M19.941 16.235v-2.647c0-.635-.423-1.059-1.059-1.059-.635 0-1.059.424-1.059 1.059v2.647a2.621 2.621 0 0 1-2.646 2.647H7.765a2.621 2.621 0 0 1-2.647-2.647V8.823a2.621 2.621 0 0 1 2.647-2.647h2.647c.635 0 1.059-.423 1.059-1.059 0-.635-.424-1.058-1.06-1.058H7.766A4.745 4.745 0 0 0 3 8.823v7.412A4.745 4.745 0 0 0 7.765 21h7.412a4.745 4.745 0 0 0 4.764-4.765Z"/><path fill="#262A33" d="M21 9.353V4.059c0-.106 0-.318-.105-.424a1.276 1.276 0 0 0-.53-.53C20.26 3 20.048 3 19.942 3h-5.083c-.635 0-1.059.424-1.059 1.059s.424 1.059 1.06 1.059h2.54l-6.67 6.67a1.023 1.023 0 0 0 0 1.483c.212.211.53.317.741.317.212 0 .53-.106.741-.317l6.67-6.671v2.753c0 .635.424 1.059 1.06 1.059.635 0 1.058-.424 1.058-1.06Z"/></svg>