<svg xmlns="http://www.w3.org/2000/svg" width="24" height="24" fill="none" viewBox="0 0 24 24"><g clip-path="url(#clip0_549_1332)"><path fill="#1BD741" d="M24 0H0v24h24V0Z"/><path fill="#fff" d="m4.274 19.734 1.082-3.844a7.692 7.692 0 0 1-1.062-3.909c0-4.254 3.461-7.715 7.716-7.715 4.254 0 7.715 3.46 7.715 7.715s-3.46 7.716-7.715 7.716a7.706 7.706 0 0 1-3.773-.983l-3.963 1.02ZM8.44 17.31l.236.144a6.394 6.394 0 0 0 3.334.934 6.414 6.414 0 0 0 6.406-6.407 6.414 6.414 0 0 0-6.406-6.407 6.414 6.414 0 0 0-6.407 6.407c0 1.231.35 2.427 1.011 3.457l.16.248-.624 2.213 2.29-.59Z"/><path fill="#fff" d="m9.842 8.388-.5-.028a.605.605 0 0 0-.43.148c-.243.21-.632.618-.75 1.149-.179.791.096 1.761.807 2.73.711.97 2.036 2.521 4.38 3.184.754.213 1.348.07 1.806-.224.363-.232.614-.604.704-1.026l.08-.373a.26.26 0 0 0-.146-.29l-1.691-.78a.26.26 0 0 0-.315.077l-.664.861a.19.19 0 0 1-.213.064c-.455-.16-1.98-.798-2.815-2.409a.192.192 0 0 1 .024-.214l.635-.734a.26.26 0 0 0 .042-.272l-.73-1.706a.26.26 0 0 0-.224-.157Z"/></g><defs><clipPath id="clip0_549_1332"><rect width="24" height="24" fill="#fff" rx="7"/></clipPath></defs></svg>